<?xml version="1.0" encoding="utf-8"?>
<!-- Generator: Adobe Illustrator 11 Build 196, SVG Export Plug-In . SVG Version: 6.0.0 Build 78)  -->

<svg 
	 xmlns:x="http://ns.adobe.com/Extensibility/1.0/" xmlns:i="http://ns.adobe.com/AdobeIllustrator/10.0/" xmlns:graph="http://ns.adobe.com/Graphs/1.0/" i:viewOrigin="178.4946 318.8096" i:rulerOrigin="-197 -304.165" i:pageBounds="197 307 199.835 304.165"
	 xmlns="http://www.w3.org/2000/svg" xmlns:xlink="http://www.w3.org/1999/xlink" xmlns:a="http://ns.adobe.com/AdobeSVGViewerExtensions/3.0/"
	 width="52.152" height="40.079" viewBox="0 0 52.152 40.079" overflow="visible" enable-background="new 0 0 52.152 40.079"
	 xml:space="preserve">
	
		<g id="Layer_1" i:layer="yes" i:dimmedPercent="50" i:rgbTrio="#4F008000FFFF">
			<g>
				<g>
					<linearGradient id="XMLID_11_" gradientUnits="userSpaceOnUse" x1="18.2266" y1="39.8281" x2="18.2266" y2="0.7295">
						<stop  offset="0" style="stop-color:#0D0F42"/>
						<stop  offset="0.3034" style="stop-color:#1B1E89"/>
						<stop  offset="1" style="stop-color:#0D0F42"/>

					</linearGradient>
					<path fill="url(#XMLID_11_)" stroke="#000000" stroke-width="0.5" d="M17.341,20.19
						c-0.441,6.921-1.046,16.399-1.777,17.603c0.034-0.056,0.184-0.213,0.423-0.213c-0.491,0-0.889,0.503-0.889,1.124
						s0.397,1.124,0.889,1.124c1.621,0,2.059-2.728,3.126-19.456c0.441-6.923,1.047-16.404,1.778-17.607
						c-0.033,0.056-0.184,0.213-0.422,0.213c0.491,0,0.887-0.503,0.887-1.124s-0.396-1.124-0.887-1.124
						C18.847,0.729,18.408,3.457,17.341,20.19z"/>
				</g>
				<g>
					<linearGradient id="XMLID_12_" gradientUnits="userSpaceOnUse" x1="35.9175" y1="39.8281" x2="35.9175" y2="0.7295">
						<stop  offset="0" style="stop-color:#0D0F42"/>
						<stop  offset="0.3034" style="stop-color:#1B1E89"/>
						<stop  offset="1" style="stop-color:#0D0F42"/>

					</linearGradient>
					<path fill="url(#XMLID_12_)" stroke="#000000" stroke-width="0.5" d="M35.033,20.19
						c-0.441,6.921-1.047,16.399-1.777,17.603c0.033-0.056,0.184-0.213,0.422-0.213c-0.49,0-0.889,0.503-0.889,1.124
						s0.398,1.124,0.889,1.124c1.621,0,2.059-2.728,3.127-19.456c0.441-6.923,1.045-16.404,1.777-17.607
						c-0.033,0.056-0.184,0.213-0.422,0.213c0.49,0,0.887-0.503,0.887-1.124S38.65,0.729,38.16,0.729
						C36.539,0.729,36.099,3.457,35.033,20.19z"/>
				</g>
				<g>
					<linearGradient id="XMLID_13_" gradientUnits="userSpaceOnUse" x1="26.9565" y1="39.8281" x2="26.9565" y2="0.7295">
						<stop  offset="0" style="stop-color:#0D0F42"/>
						<stop  offset="0.3034" style="stop-color:#1B1E89"/>
						<stop  offset="1" style="stop-color:#0D0F42"/>

					</linearGradient>
					<path fill="url(#XMLID_13_)" stroke="#000000" stroke-width="0.5" d="M26.07,20.19
						c-0.441,6.921-1.045,16.399-1.777,17.603c0.035-0.056,0.184-0.213,0.424-0.213c-0.492,0-0.889,0.503-0.889,1.124
						s0.396,1.124,0.889,1.124c1.621,0,2.059-2.728,3.125-19.456c0.441-6.923,1.047-16.404,1.777-17.607
						c-0.033,0.056-0.182,0.213-0.422,0.213c0.49,0,0.889-0.503,0.889-1.124s-0.398-1.124-0.889-1.124
						C27.576,0.729,27.138,3.457,26.07,20.19z"/>
				</g>
				<g>
					<linearGradient id="XMLID_14_" gradientUnits="userSpaceOnUse" x1="9.4966" y1="39.8281" x2="9.4966" y2="0.7295">
						<stop  offset="0" style="stop-color:#0D0F42"/>
						<stop  offset="0.3034" style="stop-color:#1B1E89"/>
						<stop  offset="1" style="stop-color:#0D0F42"/>

					</linearGradient>
					<path fill="url(#XMLID_14_)" stroke="#000000" stroke-width="0.5" d="M8.61,20.19
						C8.169,27.111,7.564,36.59,6.833,37.793c0.034-0.056,0.184-0.213,0.423-0.213c-0.491,0-0.889,0.503-0.889,1.124
						s0.397,1.124,0.889,1.124c1.621,0,2.059-2.728,3.126-19.456c0.441-6.923,1.047-16.404,1.777-17.607
						c-0.033,0.056-0.183,0.213-0.422,0.213c0.491,0,0.889-0.503,0.889-1.124s-0.397-1.124-0.889-1.124
						C10.116,0.729,9.678,3.457,8.61,20.19z"/>
				</g>
				<g>
					<linearGradient id="XMLID_15_" gradientUnits="userSpaceOnUse" x1="13.7456" y1="39.8291" x2="13.7456" y2="0.7305">
						<stop  offset="0" style="stop-color:#1B1E89"/>
						<stop  offset="0.1556" style="stop-color:#1E218A"/>
						<stop  offset="0.2831" style="stop-color:#282B8F"/>
						<stop  offset="0.4006" style="stop-color:#3A3C96"/>
						<stop  offset="0.5122" style="stop-color:#5253A0"/>
						<stop  offset="0.6195" style="stop-color:#7171AD"/>
						<stop  offset="0.7223" style="stop-color:#9696BD"/>
						<stop  offset="0.7753" style="stop-color:#ADACC6"/>
						<stop  offset="0.7792" style="stop-color:#AAA9C5"/>
						<stop  offset="0.886" style="stop-color:#5D5FA5"/>
						<stop  offset="0.9622" style="stop-color:#2D3091"/>
						<stop  offset="1" style="stop-color:#1B1E89"/>

					</linearGradient>
					<path fill="url(#XMLID_15_)" stroke="#000000" stroke-width="0.5" d="M10.616,1.854
						c0,0.621,0.397,1.124,0.889,1.124c-0.239,0-0.389-0.157-0.422-0.213c0.73,1.203,1.336,10.685,1.777,17.607
						c1.067,16.729,1.505,19.456,3.126,19.456c0.491,0,0.889-0.503,0.889-1.124s-0.397-1.124-0.889-1.124
						c0.239,0,0.389,0.157,0.422,0.213c-0.73-1.203-1.335-10.682-1.776-17.603C13.564,3.458,13.126,0.73,11.505,0.73
						C11.014,0.73,10.616,1.233,10.616,1.854z"/>
				</g>
				<g>
					<linearGradient id="XMLID_16_" gradientUnits="userSpaceOnUse" x1="22.4761" y1="39.8291" x2="22.4761" y2="0.7305">
						<stop  offset="0" style="stop-color:#1B1E89"/>
						<stop  offset="0.1556" style="stop-color:#1E218A"/>
						<stop  offset="0.2831" style="stop-color:#282B8F"/>
						<stop  offset="0.4006" style="stop-color:#3A3C96"/>
						<stop  offset="0.5122" style="stop-color:#5253A0"/>
						<stop  offset="0.6195" style="stop-color:#7171AD"/>
						<stop  offset="0.7223" style="stop-color:#9696BD"/>
						<stop  offset="0.7753" style="stop-color:#ADACC6"/>
						<stop  offset="0.7792" style="stop-color:#AAA9C5"/>
						<stop  offset="0.886" style="stop-color:#5D5FA5"/>
						<stop  offset="0.9622" style="stop-color:#2D3091"/>
						<stop  offset="1" style="stop-color:#1B1E89"/>

					</linearGradient>
					<path fill="url(#XMLID_16_)" stroke="#000000" stroke-width="0.5" d="M19.347,1.854
						c0,0.621,0.397,1.124,0.889,1.124c-0.239,0-0.389-0.157-0.422-0.213c0.731,1.203,1.336,10.685,1.778,17.607
						c1.066,16.729,1.504,19.456,3.125,19.456c0.49,0,0.889-0.503,0.889-1.124s-0.398-1.124-0.889-1.124
						c0.24,0,0.389,0.157,0.422,0.213c-0.73-1.203-1.334-10.682-1.775-17.603C22.294,3.458,21.857,0.73,20.235,0.73
						C19.744,0.73,19.347,1.233,19.347,1.854z"/>
				</g>
				<g>
					<linearGradient id="XMLID_17_" gradientUnits="userSpaceOnUse" x1="31.437" y1="39.8291" x2="31.437" y2="0.7305">
						<stop  offset="0" style="stop-color:#1B1E89"/>
						<stop  offset="0.1556" style="stop-color:#1E218A"/>
						<stop  offset="0.2831" style="stop-color:#282B8F"/>
						<stop  offset="0.4006" style="stop-color:#3A3C96"/>
						<stop  offset="0.5122" style="stop-color:#5253A0"/>
						<stop  offset="0.6195" style="stop-color:#7171AD"/>
						<stop  offset="0.7223" style="stop-color:#9696BD"/>
						<stop  offset="0.7753" style="stop-color:#ADACC6"/>
						<stop  offset="0.7792" style="stop-color:#AAA9C5"/>
						<stop  offset="0.886" style="stop-color:#5D5FA5"/>
						<stop  offset="0.9622" style="stop-color:#2D3091"/>
						<stop  offset="1" style="stop-color:#1B1E89"/>

					</linearGradient>
					<path fill="url(#XMLID_17_)" stroke="#000000" stroke-width="0.5" d="M28.308,1.854
						c0,0.621,0.396,1.124,0.889,1.124c-0.24,0-0.389-0.157-0.422-0.213c0.73,1.203,1.336,10.685,1.777,17.607
						c1.066,16.729,1.504,19.456,3.125,19.456c0.49,0,0.889-0.503,0.889-1.124s-0.398-1.124-0.889-1.124
						c0.24,0,0.389,0.157,0.422,0.213c-0.73-1.203-1.334-10.682-1.775-17.603C31.255,3.458,30.818,0.73,29.197,0.73
						C28.705,0.73,28.308,1.233,28.308,1.854z"/>
				</g>
				<g>
					<g>
						<linearGradient id="XMLID_18_" gradientUnits="userSpaceOnUse" x1="4.0723" y1="39.8291" x2="4.0723" y2="0.1265">
							<stop  offset="0" style="stop-color:#1B1E89"/>
							<stop  offset="0.1556" style="stop-color:#1E218A"/>
							<stop  offset="0.2831" style="stop-color:#282B8F"/>
							<stop  offset="0.4006" style="stop-color:#3A3C96"/>
							<stop  offset="0.5122" style="stop-color:#5253A0"/>
							<stop  offset="0.6195" style="stop-color:#7171AD"/>
							<stop  offset="0.7223" style="stop-color:#9696BD"/>
							<stop  offset="0.7753" style="stop-color:#ADACC6"/>
							<stop  offset="0.7792" style="stop-color:#AAA9C5"/>
							<stop  offset="0.886" style="stop-color:#5D5FA5"/>
							<stop  offset="0.9622" style="stop-color:#2D3091"/>
							<stop  offset="1" style="stop-color:#1B1E89"/>

						</linearGradient>
						<path fill="url(#XMLID_18_)" d="M7.64,37.701c-0.714-1.472-1.305-10.714-1.738-17.51
							c-0.023-0.365-0.046-0.716-0.069-1.068H1.788v2.201h2.403c1.023,15.873,1.476,18.505,3.065,18.505
							c0.491,0,0.889-0.503,0.889-1.124C8.145,38.26,7.936,37.884,7.64,37.701z"/>
					</g>
					<g>
						<path fill="none" stroke="#000000" stroke-width="0.5" d="M7.64,37.701
							c-0.714-1.472-1.305-10.714-1.738-17.51c-0.023-0.365-0.046-0.716-0.069-1.068H1.788v2.201h2.403
							c1.023,15.873,1.476,18.505,3.065,18.505c0.491,0,0.889-0.503,0.889-1.124C8.145,38.26,7.936,37.884,7.64,37.701z"/>
					</g>
				</g>
				<g>
					<g>
						<linearGradient id="XMLID_19_" gradientUnits="userSpaceOnUse" x1="46.9507" y1="39.8281" x2="46.9507" y2="4.882812e-04">
							<stop  offset="0" style="stop-color:#0D0F42"/>
							<stop  offset="0.3034" style="stop-color:#1B1E89"/>
							<stop  offset="1" style="stop-color:#0D0F42"/>

						</linearGradient>
						<path fill="url(#XMLID_19_)" d="M48.375,19.123h-4.312c-0.022,0.353-0.045,0.702-0.068,1.067
							c-0.434,6.795-1.025,16.035-1.738,17.509c-0.297,0.183-0.506,0.56-0.506,1.005c0,0.621,0.398,1.124,0.889,1.124
							c1.59,0,2.041-2.632,3.065-18.504h2.671V19.123z"/>
					</g>
					<g>
						<path fill="none" stroke="#000000" stroke-width="0.5" d="M48.375,19.123h-4.312
							c-0.022,0.353-0.045,0.702-0.068,1.067c-0.434,6.795-1.025,16.035-1.738,17.509c-0.297,0.183-0.506,0.56-0.506,1.005
							c0,0.621,0.398,1.124,0.889,1.124c1.59,0,2.041-2.632,3.065-18.504h2.671V19.123z"/>
					</g>
				</g>
				<g>
					<linearGradient id="XMLID_20_" gradientUnits="userSpaceOnUse" x1="40.3979" y1="39.8291" x2="40.3979" y2="0.7305">
						<stop  offset="0" style="stop-color:#1B1E89"/>
						<stop  offset="0.1556" style="stop-color:#1E218A"/>
						<stop  offset="0.2831" style="stop-color:#282B8F"/>
						<stop  offset="0.4006" style="stop-color:#3A3C96"/>
						<stop  offset="0.5122" style="stop-color:#5253A0"/>
						<stop  offset="0.6195" style="stop-color:#7171AD"/>
						<stop  offset="0.7223" style="stop-color:#9696BD"/>
						<stop  offset="0.7753" style="stop-color:#ADACC6"/>
						<stop  offset="0.7792" style="stop-color:#AAA9C5"/>
						<stop  offset="0.886" style="stop-color:#5D5FA5"/>
						<stop  offset="0.9622" style="stop-color:#2D3091"/>
						<stop  offset="1" style="stop-color:#1B1E89"/>

					</linearGradient>
					<path fill="url(#XMLID_20_)" stroke="#000000" stroke-width="0.5" d="M37.269,1.854
						c0,0.621,0.398,1.124,0.889,1.124c-0.238,0-0.389-0.157-0.422-0.213c0.73,1.203,1.336,10.685,1.777,17.607
						c1.068,16.729,1.506,19.456,3.127,19.456c0.49,0,0.887-0.503,0.887-1.124s-0.396-1.124-0.887-1.124
						c0.238,0,0.389,0.157,0.422,0.213c-0.732-1.203-1.336-10.682-1.777-17.603C40.216,3.458,39.779,0.73,38.158,0.73
						C37.667,0.73,37.269,1.233,37.269,1.854z"/>
				</g>
			</g>
		</g>
	</svg>
