<?xml version="1.0" encoding="utf-8"?>
<!-- Generator: Adobe Illustrator 11 Build 196, SVG Export Plug-In . SVG Version: 6.0.0 Build 78)  -->

<svg 
	 xmlns:x="http://ns.adobe.com/Extensibility/1.0/" xmlns:i="http://ns.adobe.com/AdobeIllustrator/10.0/" xmlns:graph="http://ns.adobe.com/Graphs/1.0/" i:viewOrigin="163.96 318.8438" i:rulerOrigin="-197 -304.165" i:pageBounds="197 307 199.835 304.165"
	 xmlns="http://www.w3.org/2000/svg" xmlns:xlink="http://www.w3.org/1999/xlink" xmlns:a="http://ns.adobe.com/AdobeSVGViewerExtensions/3.0/"
	 width="80.116" height="40.079" viewBox="0 0 80.116 40.079" overflow="visible" enable-background="new 0 0 80.116 40.079"
	 xml:space="preserve">
	
		<g id="Layer_1" i:layer="yes" i:dimmedPercent="50" i:rgbTrio="#4F008000FFFF">
			<g>
				<g>
					<linearGradient id="XMLID_17_" gradientUnits="userSpaceOnUse" x1="33.0645" y1="39.8281" x2="33.0645" y2="0.7295">
						<stop  offset="0" style="stop-color:#0D0F42"/>
						<stop  offset="0.3034" style="stop-color:#1B1E89"/>
						<stop  offset="1" style="stop-color:#0D0F42"/>

					</linearGradient>
					<path fill="url(#XMLID_17_)" stroke="#000000" stroke-width="0.5" d="M32.179,20.19
						c-0.441,6.921-1.046,16.399-1.777,17.603c0.034-0.056,0.184-0.213,0.423-0.213c-0.491,0-0.889,0.503-0.889,1.124
						s0.397,1.124,0.889,1.124c1.621,0,2.059-2.728,3.126-19.456c0.441-6.923,1.047-16.404,1.777-17.607
						c-0.033,0.056-0.183,0.213-0.422,0.213c0.49,0,0.888-0.503,0.888-1.124s-0.397-1.124-0.888-1.124
						C33.685,0.729,33.246,3.457,32.179,20.19z"/>
				</g>
				<g>
					<linearGradient id="XMLID_18_" gradientUnits="userSpaceOnUse" x1="50.7559" y1="39.8281" x2="50.7559" y2="0.7295">
						<stop  offset="0" style="stop-color:#0D0F42"/>
						<stop  offset="0.3034" style="stop-color:#1B1E89"/>
						<stop  offset="1" style="stop-color:#0D0F42"/>

					</linearGradient>
					<path fill="url(#XMLID_18_)" stroke="#000000" stroke-width="0.5" d="M49.87,20.19
						c-0.441,6.921-1.046,16.399-1.777,17.603c0.033-0.056,0.184-0.213,0.423-0.213c-0.491,0-0.889,0.503-0.889,1.124
						s0.397,1.124,0.889,1.124c1.62,0,2.059-2.728,3.126-19.456c0.441-6.923,1.046-16.404,1.777-17.607
						c-0.033,0.056-0.183,0.213-0.422,0.213c0.49,0,0.888-0.503,0.888-1.124s-0.397-1.124-0.888-1.124
						C51.376,0.729,50.938,3.457,49.87,20.19z"/>
				</g>
				<g>
					<linearGradient id="XMLID_19_" gradientUnits="userSpaceOnUse" x1="41.7939" y1="39.8281" x2="41.7939" y2="0.7295">
						<stop  offset="0" style="stop-color:#0D0F42"/>
						<stop  offset="0.3034" style="stop-color:#1B1E89"/>
						<stop  offset="1" style="stop-color:#0D0F42"/>

					</linearGradient>
					<path fill="url(#XMLID_19_)" stroke="#000000" stroke-width="0.5" d="M40.908,20.19
						c-0.441,6.921-1.046,16.399-1.777,17.603c0.034-0.056,0.184-0.213,0.423-0.213c-0.491,0-0.889,0.503-0.889,1.124
						s0.397,1.124,0.889,1.124c1.621,0,2.059-2.728,3.126-19.456c0.441-6.923,1.047-16.404,1.777-17.607
						c-0.033,0.056-0.183,0.213-0.422,0.213c0.49,0,0.888-0.503,0.888-1.124s-0.397-1.124-0.888-1.124
						C42.414,0.729,41.976,3.457,40.908,20.19z"/>
				</g>
				<g>
					<linearGradient id="XMLID_20_" gradientUnits="userSpaceOnUse" x1="24.3345" y1="39.8281" x2="24.3345" y2="0.7295">
						<stop  offset="0" style="stop-color:#0D0F42"/>
						<stop  offset="0.3034" style="stop-color:#1B1E89"/>
						<stop  offset="1" style="stop-color:#0D0F42"/>

					</linearGradient>
					<path fill="url(#XMLID_20_)" stroke="#000000" stroke-width="0.5" d="M23.448,20.19
						c-0.441,6.921-1.046,16.399-1.777,17.603c0.034-0.056,0.184-0.213,0.423-0.213c-0.491,0-0.889,0.503-0.889,1.124
						s0.397,1.124,0.889,1.124c1.621,0,2.059-2.728,3.126-19.456c0.441-6.923,1.047-16.404,1.777-17.607
						c-0.033,0.056-0.183,0.213-0.422,0.213c0.491,0,0.889-0.503,0.889-1.124s-0.397-1.124-0.889-1.124
						C24.954,0.729,24.516,3.457,23.448,20.19z"/>
				</g>
				<g>
					<linearGradient id="XMLID_21_" gradientUnits="userSpaceOnUse" x1="28.5835" y1="39.8291" x2="28.5835" y2="0.7305">
						<stop  offset="0" style="stop-color:#1B1E89"/>
						<stop  offset="0.1556" style="stop-color:#1E218A"/>
						<stop  offset="0.2831" style="stop-color:#282B8F"/>
						<stop  offset="0.4006" style="stop-color:#3A3C96"/>
						<stop  offset="0.5122" style="stop-color:#5253A0"/>
						<stop  offset="0.6195" style="stop-color:#7171AD"/>
						<stop  offset="0.7223" style="stop-color:#9696BD"/>
						<stop  offset="0.7753" style="stop-color:#ADACC6"/>
						<stop  offset="0.7792" style="stop-color:#AAA9C5"/>
						<stop  offset="0.886" style="stop-color:#5D5FA5"/>
						<stop  offset="0.9622" style="stop-color:#2D3091"/>
						<stop  offset="1" style="stop-color:#1B1E89"/>

					</linearGradient>
					<path fill="url(#XMLID_21_)" stroke="#000000" stroke-width="0.5" d="M25.454,1.854
						c0,0.621,0.397,1.124,0.889,1.124c-0.239,0-0.389-0.157-0.422-0.213c0.73,1.203,1.336,10.685,1.777,17.607
						c1.067,16.729,1.505,19.456,3.126,19.456c0.491,0,0.889-0.503,0.889-1.124s-0.397-1.124-0.889-1.124
						c0.239,0,0.389,0.157,0.422,0.213c-0.73-1.203-1.335-10.682-1.776-17.603C28.402,3.458,27.964,0.73,26.343,0.73
						C25.852,0.73,25.454,1.233,25.454,1.854z"/>
				</g>
				<g>
					<linearGradient id="XMLID_22_" gradientUnits="userSpaceOnUse" x1="37.3135" y1="39.8291" x2="37.3135" y2="0.7305">
						<stop  offset="0" style="stop-color:#1B1E89"/>
						<stop  offset="0.1556" style="stop-color:#1E218A"/>
						<stop  offset="0.2831" style="stop-color:#282B8F"/>
						<stop  offset="0.4006" style="stop-color:#3A3C96"/>
						<stop  offset="0.5122" style="stop-color:#5253A0"/>
						<stop  offset="0.6195" style="stop-color:#7171AD"/>
						<stop  offset="0.7223" style="stop-color:#9696BD"/>
						<stop  offset="0.7753" style="stop-color:#ADACC6"/>
						<stop  offset="0.7792" style="stop-color:#AAA9C5"/>
						<stop  offset="0.886" style="stop-color:#5D5FA5"/>
						<stop  offset="0.9622" style="stop-color:#2D3091"/>
						<stop  offset="1" style="stop-color:#1B1E89"/>

					</linearGradient>
					<path fill="url(#XMLID_22_)" stroke="#000000" stroke-width="0.5" d="M34.185,1.854
						c0,0.621,0.397,1.124,0.889,1.124c-0.239,0-0.389-0.157-0.422-0.213c0.73,1.203,1.336,10.685,1.777,17.607
						c1.067,16.729,1.505,19.456,3.126,19.456c0.49,0,0.888-0.503,0.888-1.124s-0.397-1.124-0.888-1.124
						c0.239,0,0.389,0.157,0.422,0.213c-0.73-1.203-1.335-10.682-1.776-17.603C37.133,3.458,36.694,0.73,35.073,0.73
						C34.582,0.73,34.185,1.233,34.185,1.854z"/>
				</g>
				<g>
					<linearGradient id="XMLID_23_" gradientUnits="userSpaceOnUse" x1="46.2744" y1="39.8291" x2="46.2744" y2="0.7305">
						<stop  offset="0" style="stop-color:#1B1E89"/>
						<stop  offset="0.1556" style="stop-color:#1E218A"/>
						<stop  offset="0.2831" style="stop-color:#282B8F"/>
						<stop  offset="0.4006" style="stop-color:#3A3C96"/>
						<stop  offset="0.5122" style="stop-color:#5253A0"/>
						<stop  offset="0.6195" style="stop-color:#7171AD"/>
						<stop  offset="0.7223" style="stop-color:#9696BD"/>
						<stop  offset="0.7753" style="stop-color:#ADACC6"/>
						<stop  offset="0.7792" style="stop-color:#AAA9C5"/>
						<stop  offset="0.886" style="stop-color:#5D5FA5"/>
						<stop  offset="0.9622" style="stop-color:#2D3091"/>
						<stop  offset="1" style="stop-color:#1B1E89"/>

					</linearGradient>
					<path fill="url(#XMLID_23_)" stroke="#000000" stroke-width="0.5" d="M43.146,1.854
						c0,0.621,0.397,1.124,0.889,1.124c-0.239,0-0.389-0.157-0.422-0.213c0.73,1.203,1.336,10.685,1.777,17.607
						c1.067,16.729,1.505,19.456,3.126,19.456c0.49,0,0.888-0.503,0.888-1.124s-0.397-1.124-0.888-1.124
						c0.239,0,0.389,0.157,0.422,0.213c-0.73-1.203-1.335-10.682-1.776-17.603C46.094,3.458,45.655,0.73,44.034,0.73
						C43.543,0.73,43.146,1.233,43.146,1.854z"/>
				</g>
				<g>
					<g>
						<linearGradient id="XMLID_24_" gradientUnits="userSpaceOnUse" x1="18.9102" y1="39.8291" x2="18.9102" y2="0.1265">
							<stop  offset="0" style="stop-color:#1B1E89"/>
							<stop  offset="0.1556" style="stop-color:#1E218A"/>
							<stop  offset="0.2831" style="stop-color:#282B8F"/>
							<stop  offset="0.4006" style="stop-color:#3A3C96"/>
							<stop  offset="0.5122" style="stop-color:#5253A0"/>
							<stop  offset="0.6195" style="stop-color:#7171AD"/>
							<stop  offset="0.7223" style="stop-color:#9696BD"/>
							<stop  offset="0.7753" style="stop-color:#ADACC6"/>
							<stop  offset="0.7792" style="stop-color:#AAA9C5"/>
							<stop  offset="0.886" style="stop-color:#5D5FA5"/>
							<stop  offset="0.9622" style="stop-color:#2D3091"/>
							<stop  offset="1" style="stop-color:#1B1E89"/>

						</linearGradient>
						<path fill="url(#XMLID_24_)" d="M22.478,37.701c-0.714-1.472-1.305-10.714-1.738-17.51
							c-0.023-0.365-0.046-0.716-0.069-1.068h-4.044v2.201h2.403c1.023,15.873,1.476,18.505,3.065,18.505
							c0.491,0,0.889-0.503,0.889-1.124C22.982,38.26,22.774,37.884,22.478,37.701z"/>
					</g>
					<g>
						<path fill="none" stroke="#000000" stroke-width="0.5" d="M22.478,37.701
							c-0.714-1.472-1.305-10.714-1.738-17.51c-0.023-0.365-0.046-0.716-0.069-1.068h-4.044v2.201h2.403
							c1.023,15.873,1.476,18.505,3.065,18.505c0.491,0,0.889-0.503,0.889-1.124C22.982,38.26,22.774,37.884,22.478,37.701z"/>
					</g>
				</g>
				<g>
					<g>
						<linearGradient id="XMLID_25_" gradientUnits="userSpaceOnUse" x1="61.7881" y1="39.8281" x2="61.7881" y2="4.882812e-04">
							<stop  offset="0" style="stop-color:#0D0F42"/>
							<stop  offset="0.3034" style="stop-color:#1B1E89"/>
							<stop  offset="1" style="stop-color:#0D0F42"/>

						</linearGradient>
						<path fill="url(#XMLID_25_)" d="M63.212,19.123h-4.312c-0.022,0.352-0.045,0.702-0.068,1.067
							c-0.434,6.796-1.024,16.038-1.738,17.51c-0.297,0.183-0.505,0.559-0.505,1.004c0,0.621,0.397,1.124,0.889,1.124
							c1.59,0,2.042-2.632,3.064-18.504h2.671V19.123z"/>
					</g>
					<g>
						<path fill="none" stroke="#000000" stroke-width="0.5" d="M63.212,19.123h-4.312
							c-0.022,0.352-0.045,0.702-0.068,1.067c-0.434,6.796-1.024,16.038-1.738,17.51c-0.297,0.183-0.505,0.559-0.505,1.004
							c0,0.621,0.397,1.124,0.889,1.124c1.59,0,2.042-2.632,3.064-18.504h2.671V19.123z"/>
					</g>
				</g>
				<g>
					
						<linearGradient id="XMLID_26_" gradientUnits="userSpaceOnUse" x1="226.2441" y1="-1120.3271" x2="226.2441" y2="-1148.6738" gradientTransform="matrix(0.8 0 0 0.8 -172.1177 928.2927)">
						<stop  offset="0" style="stop-color:#FFFFFF"/>
						<stop  offset="0.1314" style="stop-color:#C4C4C4"/>
						<stop  offset="0.3752" style="stop-color:#5C5C5C"/>
						<stop  offset="0.5444" style="stop-color:#1A1A1A"/>
						<stop  offset="0.6236" style="stop-color:#000000"/>
						<stop  offset="0.6657" style="stop-color:#151515"/>
						<stop  offset="0.7529" style="stop-color:#4C4C4C"/>
						<stop  offset="0.8765" style="stop-color:#A2A2A2"/>
						<stop  offset="1" style="stop-color:#FFFFFF"/>

					</linearGradient>
					
						<rect x="6.044" y="9.354" fill="url(#XMLID_26_)" stroke="#000000" stroke-width="0.75" width="5.668" height="22.678"/> 
					
						<linearGradient id="XMLID_27_" gradientUnits="userSpaceOnUse" x1="219.1572" y1="-1123.8701" x2="219.1572" y2="-1145.1299" gradientTransform="matrix(0.8 0 0 0.8 -172.1177 928.2927)">
						<stop  offset="0" style="stop-color:#FFFFFF"/>
						<stop  offset="0.1314" style="stop-color:#C4C4C4"/>
						<stop  offset="0.3752" style="stop-color:#5C5C5C"/>
						<stop  offset="0.5444" style="stop-color:#1A1A1A"/>
						<stop  offset="0.6236" style="stop-color:#000000"/>
						<stop  offset="0.6657" style="stop-color:#151515"/>
						<stop  offset="0.7529" style="stop-color:#4C4C4C"/>
						<stop  offset="0.8765" style="stop-color:#A2A2A2"/>
						<stop  offset="1" style="stop-color:#FFFFFF"/>

					</linearGradient>
					
						<rect x="0.375" y="12.19" fill="url(#XMLID_27_)" stroke="#000000" stroke-width="0.75" width="5.668" height="17.008"/> 
					
						<linearGradient id="XMLID_28_" gradientUnits="userSpaceOnUse" x1="233.3271" y1="-1130.957" x2="233.3271" y2="-1138.0439" gradientTransform="matrix(0.8 0 0 0.8 -172.1177 928.2927)">
						<stop  offset="0" style="stop-color:#FFFFFF"/>
						<stop  offset="0.1314" style="stop-color:#C4C4C4"/>
						<stop  offset="0.3752" style="stop-color:#5C5C5C"/>
						<stop  offset="0.5444" style="stop-color:#1A1A1A"/>
						<stop  offset="0.6236" style="stop-color:#000000"/>
						<stop  offset="0.6657" style="stop-color:#151515"/>
						<stop  offset="0.7529" style="stop-color:#4C4C4C"/>
						<stop  offset="0.8765" style="stop-color:#A2A2A2"/>
						<stop  offset="1" style="stop-color:#FFFFFF"/>

					</linearGradient>
					
						<rect x="11.711" y="17.858" fill="url(#XMLID_28_)" stroke="#000000" stroke-width="0.75" width="5.668" height="5.67"/> 
				</g>
				<g>
					
						<linearGradient id="XMLID_29_" gradientUnits="userSpaceOnUse" x1="-135.1748" y1="-1120.3271" x2="-135.1748" y2="-1148.6738" gradientTransform="matrix(-0.8 0 0 0.8 -36.8999 928.2927)">
						<stop  offset="0" style="stop-color:#FFFFFF"/>
						<stop  offset="0.1314" style="stop-color:#C4C4C4"/>
						<stop  offset="0.3752" style="stop-color:#5C5C5C"/>
						<stop  offset="0.5444" style="stop-color:#1A1A1A"/>
						<stop  offset="0.6236" style="stop-color:#000000"/>
						<stop  offset="0.6657" style="stop-color:#151515"/>
						<stop  offset="0.7529" style="stop-color:#4C4C4C"/>
						<stop  offset="0.8765" style="stop-color:#A2A2A2"/>
						<stop  offset="1" style="stop-color:#FFFFFF"/>

					</linearGradient>
					
						<rect x="68.404" y="9.354" fill="url(#XMLID_29_)" stroke="#000000" stroke-width="0.75" width="5.668" height="22.678"/> 
					
						<linearGradient id="XMLID_30_" gradientUnits="userSpaceOnUse" x1="-142.2617" y1="-1123.8682" x2="-142.2617" y2="-1145.1279" gradientTransform="matrix(-0.8 0 0 0.8 -36.8999 928.2927)">
						<stop  offset="0" style="stop-color:#FFFFFF"/>
						<stop  offset="0.1314" style="stop-color:#C4C4C4"/>
						<stop  offset="0.3752" style="stop-color:#5C5C5C"/>
						<stop  offset="0.5444" style="stop-color:#1A1A1A"/>
						<stop  offset="0.6236" style="stop-color:#000000"/>
						<stop  offset="0.6657" style="stop-color:#151515"/>
						<stop  offset="0.7529" style="stop-color:#4C4C4C"/>
						<stop  offset="0.8765" style="stop-color:#A2A2A2"/>
						<stop  offset="1" style="stop-color:#FFFFFF"/>

					</linearGradient>
					
						<rect x="74.073" y="12.19" fill="url(#XMLID_30_)" stroke="#000000" stroke-width="0.75" width="5.668" height="17.008"/> 
					
						<linearGradient id="XMLID_31_" gradientUnits="userSpaceOnUse" x1="-128.0918" y1="-1130.957" x2="-128.0918" y2="-1138.0439" gradientTransform="matrix(-0.8 0 0 0.8 -36.8999 928.2927)">
						<stop  offset="0" style="stop-color:#FFFFFF"/>
						<stop  offset="0.1314" style="stop-color:#C4C4C4"/>
						<stop  offset="0.3752" style="stop-color:#5C5C5C"/>
						<stop  offset="0.5444" style="stop-color:#1A1A1A"/>
						<stop  offset="0.6236" style="stop-color:#000000"/>
						<stop  offset="0.6657" style="stop-color:#151515"/>
						<stop  offset="0.7529" style="stop-color:#4C4C4C"/>
						<stop  offset="0.8765" style="stop-color:#A2A2A2"/>
						<stop  offset="1" style="stop-color:#FFFFFF"/>

					</linearGradient>
					
						<rect x="62.737" y="17.858" fill="url(#XMLID_31_)" stroke="#000000" stroke-width="0.75" width="5.668" height="5.67"/> 
				</g>
				<g>
					<linearGradient id="XMLID_32_" gradientUnits="userSpaceOnUse" x1="55.2363" y1="39.8291" x2="55.2363" y2="0.7305">
						<stop  offset="0" style="stop-color:#1B1E89"/>
						<stop  offset="0.1556" style="stop-color:#1E218A"/>
						<stop  offset="0.2831" style="stop-color:#282B8F"/>
						<stop  offset="0.4006" style="stop-color:#3A3C96"/>
						<stop  offset="0.5122" style="stop-color:#5253A0"/>
						<stop  offset="0.6195" style="stop-color:#7171AD"/>
						<stop  offset="0.7223" style="stop-color:#9696BD"/>
						<stop  offset="0.7753" style="stop-color:#ADACC6"/>
						<stop  offset="0.7792" style="stop-color:#AAA9C5"/>
						<stop  offset="0.886" style="stop-color:#5D5FA5"/>
						<stop  offset="0.9622" style="stop-color:#2D3091"/>
						<stop  offset="1" style="stop-color:#1B1E89"/>

					</linearGradient>
					<path fill="url(#XMLID_32_)" stroke="#000000" stroke-width="0.5" d="M52.107,1.854
						c0,0.621,0.397,1.124,0.889,1.124c-0.239,0-0.39-0.157-0.423-0.213c0.731,1.203,1.337,10.685,1.778,17.607
						c1.067,16.729,1.505,19.456,3.126,19.456c0.49,0,0.888-0.503,0.888-1.124s-0.397-1.124-0.888-1.124
						c0.239,0,0.389,0.157,0.422,0.213c-0.731-1.203-1.335-10.682-1.776-17.603C55.055,3.458,54.617,0.73,52.996,0.73
						C52.505,0.73,52.107,1.233,52.107,1.854z"/>
				</g>
			</g>
		</g>
	</svg>
