<?xml version="1.0" encoding="utf-8"?>
<!-- Generator: Adobe Illustrator 11 Build 196, SVG Export Plug-In . SVG Version: 6.0.0 Build 78)  -->

<svg 
	 xmlns:x="http://ns.adobe.com/Extensibility/1.0/" xmlns:i="http://ns.adobe.com/AdobeIllustrator/10.0/" xmlns:graph="http://ns.adobe.com/Graphs/1.0/" i:viewOrigin="172.126 340.918" i:rulerOrigin="-197 -304.165" i:pageBounds="197 307 199.835 304.165"
	 xmlns="http://www.w3.org/2000/svg" xmlns:xlink="http://www.w3.org/1999/xlink" xmlns:a="http://ns.adobe.com/AdobeSVGViewerExtensions/3.0/"
	 width="63.554" height="85.302" viewBox="0 0 63.554 85.302" overflow="visible" enable-background="new 0 0 63.554 85.302"
	 xml:space="preserve">
	
		<g id="Layer_1" i:layer="yes" i:dimmedPercent="50" i:rgbTrio="#4F008000FFFF">
			<g>
				<line fill="none" stroke="#FF1A00" stroke-width="3" x1="48.851" y1="68.406" x2="14.835" y2="68.406"/>
				<line fill="none" stroke="#FF1A00" stroke-width="3" x1="31.843" y1="6.045" x2="17.67" y2="72.658"/>
				<line fill="none" stroke="#FF1A00" stroke-width="3" x1="31.843" y1="6.045" x2="46.016" y2="72.658"/>
				
					<linearGradient id="XMLID_4_" gradientUnits="userSpaceOnUse" x1="1435.3213" y1="-456.8379" x2="1435.3213" y2="-485.1855" gradientTransform="matrix(-0.2475 0.2475 -0.7071 -0.7071 36.25 -617.0538)">
					<stop  offset="0.0056" style="stop-color:#89A4B6"/>
					<stop  offset="0.5" style="stop-color:#FFFFFF"/>
					<stop  offset="1" style="stop-color:#89A4B6"/>

				</linearGradient>
				<polygon fill="url(#XMLID_4_)" stroke="#000000" stroke-width="0.75" points="0.53,64.727 7.547,57.711 
					27.591,77.756 20.574,84.771 "/>
				
					<rect x="10.137" y="59.573" transform="matrix(-0.7071 0.7071 -0.7071 -0.7071 71.8723 117.7217)" stroke="#000000" stroke-width="0.75" width="2.837" height="28.347"/> 
				
					<linearGradient id="XMLID_5_" gradientUnits="userSpaceOnUse" x1="1050.9248" y1="24.5581" x2="1050.9248" y2="-3.7896" gradientTransform="matrix(0.2475 0.2475 -0.7071 0.7071 -203.2667 -196.2051)">
					<stop  offset="0.0056" style="stop-color:#89A4B6"/>
					<stop  offset="0.5" style="stop-color:#FFFFFF"/>
					<stop  offset="1" style="stop-color:#89A4B6"/>

				</linearGradient>
				<polygon fill="url(#XMLID_5_)" stroke="#000000" stroke-width="0.75" points="42.98,84.771 35.965,77.754 
					56.009,57.711 63.024,64.727 "/>
				
					<rect x="50.582" y="59.572" transform="matrix(0.7069 0.7073 -0.7073 0.7069 67.3986 -15.1664)" stroke="#000000" stroke-width="0.75" width="2.836" height="28.348"/> 
				
					<linearGradient id="XMLID_6_" gradientUnits="userSpaceOnUse" x1="-296.6279" y1="-366.2275" x2="-296.6279" y2="-394.5752" gradientTransform="matrix(0 -0.35 1 0 412.2441 -97.8508)">
					<stop  offset="0.0056" style="stop-color:#89A4B6"/>
					<stop  offset="0.5" style="stop-color:#FFFFFF"/>
					<stop  offset="1" style="stop-color:#89A4B6"/>

				</linearGradient>
				<path fill="url(#XMLID_6_)" stroke="#000000" stroke-width="0.75" d="M17.669,1.791v8.355
					c3.047-0.766,8.254-1.27,14.174-1.27c5.919,0,11.127,0.504,14.174,1.27V1.791H17.669z"/>
				<rect x="17.669" y="0.375" stroke="#000000" stroke-width="0.75" width="28.348" height="2.834"/> 
			</g>
		</g>
	</svg>
