<?xml version="1.0" encoding="utf-8"?>
<!-- Generator: Adobe Illustrator 11 Build 196, SVG Export Plug-In . SVG Version: 6.0.0 Build 78)  -->

<svg 
	 xmlns:x="http://ns.adobe.com/Extensibility/1.0/" xmlns:i="http://ns.adobe.com/AdobeIllustrator/10.0/" xmlns:graph="http://ns.adobe.com/Graphs/1.0/" i:viewOrigin="172.708 344.8706" i:rulerOrigin="-197 -304.165" i:pageBounds="197 307 199.835 304.165"
	 xmlns="http://www.w3.org/2000/svg" xmlns:xlink="http://www.w3.org/1999/xlink" xmlns:a="http://ns.adobe.com/AdobeSVGViewerExtensions/3.0/"
	 width="63.555" height="92.332" viewBox="0 0 63.555 92.332" overflow="visible" enable-background="new 0 0 63.555 92.332"
	 xml:space="preserve">
	
		<g id="Layer_1" i:layer="yes" i:dimmedPercent="50" i:rgbTrio="#4F008000FFFF">
			<g>
				<line fill="none" stroke="#FF1A00" stroke-width="3" x1="48.851" y1="75.435" x2="14.835" y2="75.435"/>
				<line fill="none" stroke="#FF1A00" stroke-width="3" x1="31.843" y1="13.073" x2="17.67" y2="79.687"/>
				<line fill="none" stroke="#FF1A00" stroke-width="3" x1="31.843" y1="13.073" x2="46.016" y2="79.687"/>
				
					<linearGradient id="XMLID_4_" gradientUnits="userSpaceOnUse" x1="1439.7793" y1="-455.4722" x2="1439.7793" y2="-483.8208" gradientTransform="matrix(-0.2475 0.2475 -0.7071 -0.7071 38.3188 -610.1621)">
					<stop  offset="0.0056" style="stop-color:#89A4B6"/>
					<stop  offset="0.5" style="stop-color:#FFFFFF"/>
					<stop  offset="1" style="stop-color:#89A4B6"/>

				</linearGradient>
				<polygon fill="url(#XMLID_4_)" stroke="#000000" stroke-width="0.75" points="0.53,71.755 7.547,64.74 
					27.591,84.785 20.574,91.8 "/>
				
					<rect x="10.137" y="66.601" transform="matrix(-0.7071 0.7071 -0.7071 -0.7071 76.8424 129.7206)" stroke="#000000" stroke-width="0.75" width="2.837" height="28.347"/> 
				
					<linearGradient id="XMLID_5_" gradientUnits="userSpaceOnUse" x1="1057.7334" y1="30.2749" x2="1057.7334" y2="1.9272" gradientTransform="matrix(0.2475 0.2475 -0.7071 0.7071 -200.9097 -194.9033)">
					<stop  offset="0.0056" style="stop-color:#89A4B6"/>
					<stop  offset="0.5" style="stop-color:#FFFFFF"/>
					<stop  offset="1" style="stop-color:#89A4B6"/>

				</linearGradient>
				<polygon fill="url(#XMLID_5_)" stroke="#000000" stroke-width="0.75" points="42.98,91.8 35.965,84.783 
					56.009,64.74 63.024,71.755 "/>
				
					<rect x="50.582" y="66.601" transform="matrix(0.7069 0.7073 -0.7073 0.7069 72.3698 -13.1062)" stroke="#000000" stroke-width="0.75" width="2.836" height="28.347"/> 
				
					<linearGradient id="XMLID_6_" gradientUnits="userSpaceOnUse" x1="1343.7432" y1="452.7114" x2="1343.7432" y2="424.3638" gradientTransform="matrix(0 -0.35 1 0 -406.6938 483.3083)">
					<stop  offset="0.0056" style="stop-color:#89A4B6"/>
					<stop  offset="0.5" style="stop-color:#FFFFFF"/>
					<stop  offset="1" style="stop-color:#89A4B6"/>

				</linearGradient>
				<path fill="url(#XMLID_6_)" stroke="#000000" stroke-width="0.75" d="M17.67,8.819v8.355
					c3.047-0.764,8.254-1.27,14.174-1.27c5.919,0,11.127,0.506,14.174,1.27V8.819H17.67z"/>
				<rect x="17.67" y="7.403" stroke="#000000" stroke-width="0.75" width="28.348" height="2.836"/> 
				<rect x="21.922" y="0.375" stroke="#000000" stroke-width="0.75" width="19.842" height="8.444"/> 
			</g>
		</g>
	</svg>
