<?xml version="1.0" encoding="utf-8"?>
<!-- Generator: Adobe Illustrator 11 Build 196, SVG Export Plug-In . SVG Version: 6.0.0 Build 78)  -->

<svg 
	 xmlns:x="http://ns.adobe.com/Extensibility/1.0/" xmlns:i="http://ns.adobe.com/AdobeIllustrator/10.0/" xmlns:graph="http://ns.adobe.com/Graphs/1.0/" i:viewOrigin="184.6646 310.4453" i:rulerOrigin="-197 -304.165" i:pageBounds="197 307 199.835 304.165"
	 xmlns="http://www.w3.org/2000/svg" xmlns:xlink="http://www.w3.org/1999/xlink" xmlns:a="http://ns.adobe.com/AdobeSVGViewerExtensions/3.0/"
	 width="38.893" height="23.428" viewBox="0 0 38.893 23.428" overflow="visible" enable-background="new 0 0 38.893 23.428"
	 xml:space="preserve">
	
		<g id="Layer_1" i:layer="yes" i:dimmedPercent="50" i:rgbTrio="#4F008000FFFF">
			<g>
				<radialGradient id="XMLID_2_" cx="8.8794" cy="7.4619" r="17.0666" fx="8.8794" fy="7.4619" gradientUnits="userSpaceOnUse">
					<stop  offset="0" style="stop-color:#FEDE58"/>
					<stop  offset="0.6854" style="stop-color:#BA0000"/>

				</radialGradient>
				<path fill="url(#XMLID_2_)" stroke="#000000" stroke-width="0.75" d="M6.044,1.793
					c-0.986,0-1.936,0.148-2.834,0.416v19.01c0.899,0.268,1.849,0.416,2.834,0.416c5.479,0,9.921-4.441,9.921-9.921
					S11.523,1.793,6.044,1.793z"/>
				<rect x="0.375" y="0.375" stroke="#000000" stroke-width="0.75" width="2.835" height="22.678"/> 
				<path fill="none" stroke="#000000" stroke-width="0.5" d="M1.792,12.992c1.29,0.088,2.728,0.139,4.252,0.139
					c5.479,0,9.922-0.635,9.922-1.417"/>
				
					<ellipse fill="#D9D9D9" stroke="#000000" stroke-width="0.5" cx="28.583" cy="11.714" rx="10.06" ry="9.921"/> 
				<line fill="none" stroke="#000000" stroke-width="0.5" x1="18.523" y1="11.714" x2="38.643" y2="11.714"/>
				<line fill="none" stroke="#000000" stroke-width="0.5" x1="28.583" y1="1.793" x2="28.583" y2="21.635"/>
				
					<line fill="none" stroke="#000000" stroke-width="0.25" stroke-dasharray="1" x1="6.044" y1="1.793" x2="28.583" y2="1.793"/>
				
					<line fill="none" stroke="#000000" stroke-width="0.25" stroke-dasharray="1" x1="6.044" y1="21.635" x2="28.583" y2="21.635"/>
				<g>
					<path d="M24.347,8.567l-0.49,1.484h-0.63l1.603-4.718h0.736l1.609,4.718h-0.65L26.02,8.567H24.347z
						 M25.894,8.092l-0.469-1.358c-0.098-0.308-0.168-0.588-0.238-0.86h-0.021c-0.062,0.272-0.139,0.566-0.23,0.854l-0.462,1.365
						H25.894z"/>
				</g>
				<g>
					<path d="M30.671,5.403c0.266-0.062,0.692-0.104,1.112-0.104c0.608,0,1.001,0.104,1.288,0.343
						c0.244,0.183,0.398,0.462,0.398,0.833c0,0.462-0.308,0.861-0.797,1.036v0.021c0.447,0.104,0.973,0.476,0.973,1.176
						c0,0.405-0.161,0.714-0.406,0.944c-0.322,0.302-0.854,0.441-1.624,0.441c-0.42,0-0.742-0.028-0.944-0.056V5.403z M31.28,7.336
						h0.553c0.638,0,1.015-0.343,1.015-0.798c0-0.546-0.412-0.771-1.028-0.771c-0.28,0-0.441,0.021-0.539,0.042V7.336z M31.28,9.59
						c0.126,0.021,0.294,0.028,0.511,0.028c0.631,0,1.211-0.231,1.211-0.917c0-0.638-0.553-0.91-1.218-0.91H31.28V9.59z"/>
				</g>
				<g>
					<path d="M26.875,17.809c-0.217,0.112-0.672,0.225-1.246,0.225c-1.33,0-2.324-0.84-2.324-2.395
						c0-1.483,1.001-2.478,2.464-2.478c0.581,0,0.959,0.126,1.12,0.21l-0.154,0.497c-0.224-0.112-0.553-0.196-0.945-0.196
						c-1.105,0-1.84,0.707-1.84,1.946c0,1.162,0.664,1.896,1.806,1.896c0.378,0,0.756-0.076,1.001-0.195L26.875,17.809z"/>
				</g>
				<g>
					<path d="M30.417,13.301c0.379-0.056,0.819-0.098,1.303-0.098c0.875,0,1.498,0.196,1.91,0.581
						c0.428,0.385,0.673,0.938,0.673,1.701c0,0.77-0.245,1.399-0.679,1.834c-0.448,0.44-1.176,0.679-2.094,0.679
						c-0.441,0-0.798-0.014-1.113-0.056V13.301z M31.035,17.48c0.153,0.027,0.377,0.027,0.615,0.027
						c1.303,0.007,2.01-0.728,2.01-2.002c0.006-1.127-0.623-1.819-1.912-1.819c-0.314,0-0.553,0.027-0.713,0.062V17.48z"/>
				</g>
			</g>
		</g>
	</svg>
