<?xml version="1.0" encoding="utf-8"?>
<!-- Generator: Adobe Illustrator 11 Build 196, SVG Export Plug-In . SVG Version: 6.0.0 Build 78)  -->

<svg 
	 xmlns:x="http://ns.adobe.com/Extensibility/1.0/" xmlns:i="http://ns.adobe.com/AdobeIllustrator/10.0/" xmlns:graph="http://ns.adobe.com/Graphs/1.0/" i:viewOrigin="171.0913 313.6431" i:rulerOrigin="-197 -304.165" i:pageBounds="197 307 199.835 304.165"
	 xmlns="http://www.w3.org/2000/svg" xmlns:xlink="http://www.w3.org/1999/xlink" xmlns:a="http://ns.adobe.com/AdobeSVGViewerExtensions/3.0/"
	 width="67.364" height="29.097" viewBox="0 0 67.364 29.097" overflow="visible" enable-background="new 0 0 67.364 29.097"
	 xml:space="preserve">
	
		<g id="Layer_1" i:layer="yes" i:dimmedPercent="50" i:rgbTrio="#4F008000FFFF">
			<g>
				<path fill="#FFFFFF" stroke="#000000" stroke-width="0.75" d="M66.989,24.722c0,2.209-1.791,4-4,4H4.375
					c-2.209,0-4-1.791-4-4V4.375c0-2.209,1.791-4,4-4h58.614c2.209,0,4,1.791,4,4V24.722z"/>
				<path fill="#C4C4C9" d="M27.305,16.801c0,1.104-0.896,2-2,2H6.627c-1.104,0-2-0.896-2-2V6.628
					c0-1.104,0.896-2,2-2h18.678c1.104,0,2,0.896,2,2V16.801z"/>
				<rect x="32.973" y="4.628" fill="#C4C4C9" width="5.67" height="2.834"/> 
				<rect x="32.973" y="8.879" fill="#C4C4C9" width="5.67" height="2.835"/> 
				<rect x="32.973" y="13.131" fill="#C4C4C9" width="5.67" height="2.835"/> 
				<rect x="32.973" y="17.383" fill="#C4C4C9" width="5.67" height="2.835"/> 
				<rect x="40.061" y="4.628" fill="#C4C4C9" width="5.668" height="2.834"/> 
				<rect x="47.147" y="4.628" fill="#C4C4C9" width="5.67" height="2.834"/> 
				<rect x="40.061" y="8.879" fill="#C4C4C9" width="5.668" height="2.835"/> 
				<rect x="40.061" y="13.131" fill="#C4C4C9" width="5.668" height="2.835"/> 
				<rect x="40.061" y="17.383" fill="#C4C4C9" width="5.668" height="2.835"/> 
				<rect x="47.147" y="17.383" fill="#C4C4C9" width="5.67" height="2.835"/> 
				<rect x="47.147" y="21.635" fill="#C4C4C9" width="5.67" height="2.835"/> 
				<circle fill="#C4C4C9" cx="58.486" cy="11.714" r="2.835"/> 
			</g>
		</g>
	</svg>
